<?xml version="1.0" encoding="UTF-8" standalone="no"?><!DOCTYPE svg PUBLIC "-//W3C//DTD SVG 1.1//EN" "http://www.w3.org/Graphics/SVG/1.1/DTD/svg11.dtd"><svg width="100%" height="100%" fill="#E57373" viewBox="0 0 412 90" version="1.1" xmlns="http://www.w3.org/2000/svg" xmlns:xlink="http://www.w3.org/1999/xlink" xml:space="preserve" style="fill-rule:evenodd;clip-rule:evenodd;stroke-linejoin:round;stroke-miterlimit:1.41421;"><g><path d="M89.814,11.022c-7.911,-8.526 -23.663,-11.413 -35.739,1.181c6.675,-5.272 14.639,-3.486 18.819,1.018c5.429,5.777 5.896,17.941 -5.746,25.488c-11.707,7.672 -16.088,15.251 -17.111,17.261c-1.071,-2.035 -5.607,-9.47 -17.468,-16.866c-11.815,-7.324 -11.611,-19.471 -6.309,-25.366c4.066,-4.576 11.899,-6.544 18.645,-1.572c-12.326,-12.212 -27.953,-8.962 -35.689,-0.255c-9.161,10.195 -9.518,31.18 10.907,43.839c20.501,12.783 28.34,25.632 30.191,29.153c1.773,-3.477 9.337,-16.573 29.574,-29.837c20.122,-13.038 19.315,-34.064 9.926,-44.044Z" style="fill-rule:nonzero;"/><path d="M65.142,15.538c-3.45,-3.717 -10.762,-4.668 -15.535,2.643c-4.922,-7.217 -12.216,-6.106 -15.606,-2.297c-3.538,3.94 -3.678,12.051 4.216,16.94c7.922,4.939 10.946,9.904 11.662,11.264c0.687,-1.341 3.61,-6.403 11.427,-11.526c7.778,-5.041 7.464,-13.165 3.836,-17.024Zm-3.978,5.1c-1.094,0 -1.98,-0.886 -1.98,-1.981c0,-1.093 0.886,-1.978 1.98,-1.978c1.095,0 1.98,0.885 1.98,1.978c0,1.095 -0.885,1.981 -1.98,1.981Z" style="fill-rule:nonzero;"/></g><path d="M147.199,83.935l-5.468,0l13.044,-59.238c0.532,-2.354 0.797,-4.101 0.797,-5.24c0,-1.291 -0.313,-2.316 -0.939,-3.076c-0.627,-0.759 -1.491,-1.139 -2.592,-1.139c-3.38,0 -7.386,3.759 -12.018,11.278c-1.823,2.924 -3.769,6.417 -5.839,10.481c-2.069,4.063 -3.92,7.907 -5.553,11.534c-1.633,3.626 -3.285,7.623 -4.956,11.99c-1.671,4.367 -3.152,8.601 -4.443,12.702l-3.018,9.626l-0.342,1.082l-4.842,0l0.342,-1.139c2.506,-8.658 5.335,-20.714 8.487,-36.169c1.215,-5.81 2.278,-11.278 3.19,-16.405c1.253,-6.873 1.879,-11.657 1.879,-14.353c0,-1.405 -0.152,-2.668 -0.455,-3.788c-0.304,-1.12 -0.731,-1.965 -1.282,-2.535c-0.551,-0.569 -1.206,-0.854 -1.965,-0.854c-3.076,0 -5.658,3.797 -7.746,11.392c-1.633,5.81 -2.716,11.069 -3.247,15.777l-4.443,-3.075c0.759,-4.747 1.937,-9.123 3.532,-13.13c1.594,-4.006 3.398,-7.119 5.411,-9.341c2.012,-2.221 4.044,-3.332 6.094,-3.332c2.431,0 4.339,1.31 5.725,3.93c1.386,2.62 2.079,6.247 2.079,10.879c0,3.798 -0.361,7.975 -1.083,12.531c-0.493,3.114 -1.025,6.209 -1.594,9.285l-2.905,14.012l0.512,-1.253c3.304,-8.051 6.465,-15.019 9.484,-20.904c3.019,-5.886 5.838,-10.652 8.458,-14.297c4.709,-6.418 9.076,-9.626 13.101,-9.626c1.861,0 3.389,0.655 4.585,1.965c1.196,1.31 1.795,3.009 1.795,5.098c0,1.784 -0.323,4.139 -0.969,7.063l-12.816,58.269Z" style="fill-rule:nonzero;"/><path d="M160.984,72.999c0,-3.418 0.92,-6.826 2.762,-10.224c1.842,-3.399 4.225,-6.161 7.148,-8.288c2.924,-2.126 5.905,-3.19 8.943,-3.19c3.19,0 5.762,1.054 7.718,3.162c1.956,2.107 2.933,4.832 2.933,8.173c0,3.646 -0.901,7.177 -2.705,10.595c-1.804,3.417 -4.177,6.218 -7.12,8.401c-2.943,2.184 -5.914,3.275 -8.914,3.275c-3.228,0 -5.829,-1.091 -7.804,-3.275c-1.974,-2.183 -2.961,-5.06 -2.961,-8.629Zm24.378,-12.531c0,-2.279 -0.56,-4.158 -1.68,-5.639c-1.12,-1.481 -2.554,-2.222 -4.301,-2.222c-1.594,0 -3.123,0.513 -4.585,1.538c-1.462,1.026 -2.8,2.526 -4.015,4.5c-1.367,2.278 -2.497,4.937 -3.39,7.974c-0.892,3.038 -1.338,5.734 -1.338,8.089c0,2.81 0.551,4.974 1.652,6.493c1.101,1.519 2.677,2.278 4.727,2.278c3.304,0 6.209,-2.297 8.715,-6.892c1.291,-2.354 2.316,-4.993 3.076,-7.917c0.759,-2.924 1.139,-5.658 1.139,-8.202Z" style="fill-rule:nonzero;"/><path d="M206.722,50.614l-5.525,22.043c-0.494,1.975 -0.741,3.645 -0.741,5.012c0,1.33 0.418,2.393 1.253,3.19c0.836,0.798 1.918,1.196 3.247,1.196c3.228,0 6.588,-2.639 10.082,-7.917l0.228,-0.342c0.076,-0.379 0.133,-0.683 0.171,-0.911l3.588,-19.936l5.582,-2.335l-5.012,18.739c-0.836,3.076 -1.253,5.544 -1.253,7.405c0,1.215 0.208,2.203 0.626,2.962c0.418,0.759 0.968,1.139 1.652,1.139c1.177,0 3.057,-1.405 5.639,-4.215l0.911,0.798l-0.569,0.626c-2.165,2.544 -3.76,4.263 -4.785,5.155c-1.025,0.892 -1.975,1.339 -2.848,1.339c-1.177,0 -2.174,-0.599 -2.99,-1.795c-0.817,-1.196 -1.225,-2.686 -1.225,-4.471c0,-0.57 0.019,-1.101 0.057,-1.595c-3.949,5.24 -7.86,7.861 -11.734,7.861c-1.936,0 -3.484,-0.561 -4.642,-1.681c-1.158,-1.12 -1.737,-2.61 -1.737,-4.471c0,-1.443 0.209,-3.209 0.627,-5.297l3.873,-20.164l5.525,-2.335Z" style="fill-rule:nonzero;"/><path d="M230.303,67.759c3.266,-3.95 5.449,-7.633 6.55,-11.051c-3.076,-1.708 -4.613,-4.158 -4.613,-7.347c0,-1.519 0.36,-2.753 1.082,-3.703c0.721,-0.949 1.633,-1.424 2.734,-1.424c1.139,0 2.069,0.523 2.791,1.567c0.721,1.044 1.082,2.402 1.082,4.072c0,1.178 -0.209,2.488 -0.626,3.931c1.025,0.265 1.955,0.398 2.791,0.398c2.354,0 4.29,-0.683 5.809,-2.05l2.734,0l-0.398,0.797c-2.734,5.013 -4.984,9.94 -6.75,14.781c-1.766,4.842 -2.649,8.459 -2.649,10.851c0,0.873 0.228,1.604 0.684,2.193c0.456,0.588 1.006,0.883 1.652,0.883c1.557,0 4.063,-1.652 7.518,-4.956l0.912,1.025c-1.064,1.178 -2.715,2.64 -4.956,4.386c-2.012,1.595 -3.892,2.393 -5.639,2.393c-1.481,0 -2.648,-0.494 -3.503,-1.481c-0.854,-0.988 -1.281,-2.336 -1.281,-4.044c0,-2.848 1.101,-6.456 3.303,-10.823c0.798,-1.633 1.823,-3.493 3.076,-5.582c1.253,-2.088 2.829,-4.575 4.728,-7.461l0.569,-0.798c-1.253,1.139 -2.458,1.946 -3.617,2.421c-1.158,0.475 -2.477,0.712 -3.958,0.712c-0.684,0 -1.405,-0.095 -2.165,-0.285c-1.215,3.721 -3.493,7.557 -6.835,11.506l-1.025,-0.911Zm7.803,-14.468c0.152,-0.949 0.228,-1.747 0.228,-2.392c0,-1.329 -0.218,-2.374 -0.655,-3.133c-0.436,-0.76 -0.997,-1.139 -1.68,-1.139c-0.38,0 -0.712,0.18 -0.997,0.541c-0.285,0.361 -0.427,0.807 -0.427,1.338c0,1.785 1.177,3.38 3.531,4.785Z" style="fill-rule:nonzero;"/><path d="M287.661,50.272l-5.354,20.847c-0.57,2.279 -0.855,4.063 -0.855,5.354c0,1.14 0.247,2.127 0.741,2.962c0.493,0.836 1.101,1.253 1.823,1.253c1.101,0 2.923,-1.348 5.468,-4.044l0.797,0.798l-0.626,0.74c-2.013,2.316 -3.56,3.94 -4.643,4.87c-1.082,0.93 -2.022,1.396 -2.819,1.396c-1.215,0 -2.269,-0.636 -3.161,-1.909c-0.893,-1.272 -1.339,-2.743 -1.339,-4.414c0,-1.215 0.456,-3.968 1.367,-8.259l0.456,-2.164c-1.405,3.265 -3.285,6.398 -5.639,9.398c-3.949,5.012 -7.728,7.519 -11.335,7.519c-2.165,0 -3.873,-0.779 -5.126,-2.336c-1.254,-1.557 -1.88,-3.645 -1.88,-6.265c0,-3.57 1.016,-7.31 3.047,-11.221c2.032,-3.912 4.557,-7.13 7.576,-9.655c3.019,-2.525 5.952,-3.788 8.8,-3.788c3,0 5.24,1.102 6.721,3.304l0.627,-2.165l5.354,-2.221Zm-6.55,7.291c-0.456,-1.443 -1.225,-2.573 -2.307,-3.389c-1.082,-0.817 -2.326,-1.225 -3.731,-1.225c-1.671,0 -3.437,0.769 -5.297,2.307c-1.861,1.538 -3.57,3.674 -5.127,6.408c-1.215,2.164 -2.231,4.557 -3.047,7.177c-0.816,2.62 -1.225,4.784 -1.225,6.493c0,1.937 0.371,3.456 1.111,4.557c0.741,1.101 1.794,1.652 3.161,1.652c1.747,0 3.57,-0.817 5.468,-2.45c1.899,-1.632 3.779,-3.968 5.639,-7.006c1.14,-1.746 2.032,-3.493 2.678,-5.24c0.645,-1.747 1.367,-4.177 2.164,-7.291l0.513,-1.993Z" style="fill-rule:nonzero;"/><path d="M308.508,6.584l6.038,-2.905l-16.405,70.231c6.836,-15.265 13.538,-22.897 20.107,-22.897c1.329,0 2.516,0.351 3.56,1.053c1.044,0.703 1.861,1.738 2.449,3.105c0.589,1.367 0.883,2.81 0.883,4.328c0,2.886 -0.683,6.086 -2.05,9.598c-1.367,3.513 -3.095,6.522 -5.184,9.028c-3.721,4.519 -7.822,6.778 -12.303,6.778c-1.405,0 -2.753,-0.237 -4.044,-0.712c-1.291,-0.474 -2.734,-1.262 -4.329,-2.363l-3.987,2.392l15.265,-77.636Zm-10.367,71.541c1.709,3.57 4.158,5.354 7.348,5.354c2.279,0 4.396,-0.987 6.351,-2.962c1.956,-1.974 3.693,-4.841 5.212,-8.6c0.873,-2.127 1.595,-4.434 2.164,-6.921c0.57,-2.487 0.855,-4.471 0.855,-5.952c0,-3.57 -1.253,-5.354 -3.76,-5.354c-1.67,0 -3.569,1.025 -5.695,3.075c-2.127,2.051 -4.263,4.908 -6.408,8.573c-2.146,3.664 -4.168,7.927 -6.067,12.787Z" style="fill-rule:nonzero;"/><path d="M353.107,75.106l1.025,0.855c-2.354,3.113 -4.651,5.363 -6.892,6.749c-2.24,1.386 -4.651,2.079 -7.234,2.079c-3.075,0 -5.544,-1.025 -7.404,-3.075c-1.861,-2.051 -2.791,-4.766 -2.791,-8.146c0,-3.417 0.902,-6.882 2.705,-10.395c1.804,-3.512 4.063,-6.417 6.778,-8.714c2.716,-2.298 5.402,-3.446 8.06,-3.446c1.557,0 2.839,0.455 3.845,1.367c1.006,0.911 1.509,2.088 1.509,3.531c0,2.924 -1.594,5.848 -4.784,8.772c-3.19,2.924 -7.538,5.411 -13.044,7.461c-0.038,0.304 -0.057,0.646 -0.057,1.026c0,2.62 0.722,4.756 2.165,6.408c1.443,1.651 3.303,2.477 5.582,2.477c1.784,0 3.512,-0.56 5.183,-1.68c1.671,-1.12 3.455,-2.876 5.354,-5.269Zm-18.227,-4.329c4.101,-1.822 7.253,-3.854 9.455,-6.094c1.481,-1.519 2.677,-3.152 3.589,-4.899c0.911,-1.746 1.367,-3.322 1.367,-4.727c0,-1.785 -0.817,-2.677 -2.449,-2.677c-2.469,0 -4.965,1.946 -7.491,5.838c-2.525,3.892 -4.015,8.079 -4.471,12.559Z" style="fill-rule:nonzero;"/><path d="M379.422,3.679l-14.98,65.674l-0.513,2.222c-0.493,2.088 -0.74,3.854 -0.74,5.297c0,1.177 0.218,2.136 0.655,2.876c0.437,0.741 0.978,1.111 1.623,1.111c1.177,0 3.057,-1.405 5.639,-4.215l0.912,0.798l-0.57,0.626c-2.164,2.544 -3.759,4.263 -4.785,5.155c-1.025,0.892 -1.974,1.339 -2.848,1.339c-1.139,0 -2.136,-0.636 -2.99,-1.909c-0.854,-1.272 -1.281,-2.724 -1.281,-4.357c0,-1.139 0.246,-2.943 0.74,-5.411l13.158,-66.301l5.98,-2.905Z" style="fill-rule:nonzero;"/><path d="M406.991,50.272l-5.355,20.847c-0.569,2.279 -0.854,4.063 -0.854,5.354c0,1.14 0.247,2.127 0.74,2.962c0.494,0.836 1.102,1.253 1.823,1.253c1.101,0 2.924,-1.348 5.468,-4.044l0.798,0.798l-0.627,0.74c-2.012,2.316 -3.56,3.94 -4.642,4.87c-1.082,0.93 -2.022,1.396 -2.82,1.396c-1.215,0 -2.268,-0.636 -3.161,-1.909c-0.892,-1.272 -1.338,-2.743 -1.338,-4.414c0,-1.215 0.455,-3.968 1.367,-8.259l0.455,-2.164c-1.405,3.265 -3.284,6.398 -5.639,9.398c-3.949,5.012 -7.727,7.519 -11.334,7.519c-2.165,0 -3.874,-0.779 -5.127,-2.336c-1.253,-1.557 -1.879,-3.645 -1.879,-6.265c0,-3.57 1.015,-7.31 3.047,-11.221c2.031,-3.912 4.557,-7.13 7.575,-9.655c3.019,-2.525 5.953,-3.788 8.801,-3.788c3,0 5.24,1.102 6.721,3.304l0.626,-2.165l5.355,-2.221Zm-6.551,7.291c-0.455,-1.443 -1.224,-2.573 -2.307,-3.389c-1.082,-0.817 -2.325,-1.225 -3.73,-1.225c-1.671,0 -3.437,0.769 -5.298,2.307c-1.86,1.538 -3.569,3.674 -5.126,6.408c-1.215,2.164 -2.231,4.557 -3.047,7.177c-0.817,2.62 -1.225,4.784 -1.225,6.493c0,1.937 0.37,3.456 1.111,4.557c0.74,1.101 1.794,1.652 3.161,1.652c1.747,0 3.569,-0.817 5.468,-2.45c1.899,-1.632 3.778,-3.968 5.639,-7.006c1.139,-1.746 2.032,-3.493 2.677,-5.24c0.646,-1.747 1.367,-4.177 2.165,-7.291l0.512,-1.993Z" style="fill-rule:nonzero;"/></svg>